<?xml version="1.0" standalone="no"?>
<!DOCTYPE svg PUBLIC "-//W3C//DTD SVG 20010904//EN"
 "http://www.w3.org/TR/2001/REC-SVG-20010904/DTD/svg10.dtd">
<svg version="1.0" xmlns="http://www.w3.org/2000/svg"
 width="425.000000pt" height="283.000000pt" viewBox="0 0 425.000000 283.000000"
 preserveAspectRatio="xMidYMid meet">

<g transform="translate(0.000000,283.000000) scale(0.100000,-0.100000)"
fill="#000000" stroke="none">
<path d="M256 2715 c-75 -27 -126 -81 -146 -156 -7 -24 -9 -424 -8 -1161 l3
-1123 22 -40 c24 -46 54 -75 103 -101 34 -18 98 -19 1890 -19 l1855 0 40 22
c46 24 75 54 101 103 18 34 19 81 19 1180 0 1099 -1 1146 -19 1180 -26 49 -55
79 -101 103 l-40 22 -1840 2 c-1562 2 -1846 0 -1879 -12z m3757 -44 c21 -13
50 -42 65 -64 l27 -41 0 -1146 0 -1146 -27 -41 c-15 -22 -44 -51 -65 -64 l-38
-24 -1856 0 -1855 0 -41 27 c-22 15 -51 44 -64 65 l-24 38 -3 1123 c-2 775 1
1136 8 1163 13 48 76 115 122 128 21 6 730 9 1873 8 l1840 -2 38 -24z"/>
<path d="M396 2575 c-75 -27 -126 -81 -146 -156 -7 -25 -9 -331 -8 -881 3
-801 4 -845 22 -878 26 -49 55 -79 101 -103 l40 -22 1715 0 1715 0 40 22 c46
24 75 54 101 103 18 33 19 75 19 900 0 825 -1 867 -19 900 -26 49 -55 79 -101
103 l-40 22 -1700 2 c-1442 2 -1706 0 -1739 -12z m3477 -44 c21 -13 50 -42 65
-64 l27 -41 0 -865 0 -866 -24 -38 c-13 -21 -42 -50 -64 -65 l-41 -27 -1716 0
-1716 0 -41 27 c-22 15 -51 44 -64 65 l-24 38 -3 843 c-2 578 1 856 8 883 13
48 76 114 122 128 21 6 678 9 1733 8 l1700 -2 38 -24z"/>
<path d="M431 406 c-13 -7 -30 -24 -37 -37 -51 -92 72 -183 146 -109 43 43 32
118 -21 145 -34 18 -57 18 -88 1z"/>
<path d="M691 406 c-13 -7 -30 -24 -37 -37 -51 -92 72 -183 146 -109 43 43 32
118 -21 145 -34 18 -57 18 -88 1z"/>
<path d="M974 412 c-63 -9 -88 -102 -41 -149 55 -56 149 -17 149 62 0 59 -47
97 -108 87z"/>
</g>
</svg>
